:SAMPLES-PER-SECOND 30
:FRAME-RANGE 1-2643
:FULLY-SPECIFIED
:DEGREES
248
root  -36.7013 37.9198 -57.3791 2.41083 43.4448 -6.18585
RightUpLeg  -24.0275 -3.48355 -5.93951
RightLeg  27.4296 2.06257 0.931574
RightFoot  -8.24668 -0.406329 12.9066
RightToes  5.38607e-012 1.2921e-014 -6.02303e-014
Spine  2.69828 -2.67103 7.80108
Spine1  4.52211 -3.10424 2.27927
HEad  -1.06711 17.0281 -12.9369
LeftShoulder1  1.5798 -2.32988 -21.9495
LeftArm  -4.59653 -0.857366 -55.1302
LeftForeArm  34.6969 4.28494 -11.6928
LeftHand  -0.0571338 4.5741 5.30098
RightShoulder  1.55762 1.56491 25.9244
RightArm  -29.6155 6.62699 43.7141
RightForeArm  69.6804 -4.81621 0.539589
RightHand  0.312925 -6.92816 -23.9488
LeftUpLeg  -21.921 4.05074 5.30699
LeftLeg  64.296 0.520439 1.85972
LeftFoot  -10.0925 0.116266 -5.1178
LeftToes  -4.79707e-012 -5.93756e-011 -7.55542e-012
249
root  -36.1227 38.2195 -56.7149 3.42108 45.7805 -5.92059
RightUpLeg  -21.8503 -5.59695 -6.06964
RightLeg  25.3139 1.85735 0.732033
RightFoot  -8.73646 -0.350562 12.7468
RightToes  5.38607e-012 1.2921e-014 -6.02303e-014
Spine  3.62686 -2.19573 7.82739
Spine1  3.51688 -2.5391 2.00013
HEad  -1.61462 15.3241 -12.8413
LeftShoulder1  1.58686 -2.30194 -22.2316
LeftArm  -4.53461 -0.447441 -54.2138
LeftForeArm  33.907 4.27119 -11.7483
LeftHand  -0.0638729 4.434 5.43771
RightShoulder  1.66118 1.97834 25.3715
RightArm  -29.1619 9.59031 44.8573
RightForeArm  68.3089 -4.89011 0.6643
RightHand  0.278545 -6.73465 -24.3875
LeftUpLeg  -26.4536 6.55053 4.56603
LeftLeg  61.0144 1.09709 2.75133
LeftFoot  -11.4589 0.0635873 -4.92993
LeftToes  -4.79707e-012 -5.93756e-011 -7.55542e-012
250
root  -35.5284 38.4425 -56.1139 4.89618 48.1361 -5.31491
RightUpLeg  -20.1305 -7.1203 -6.52451
RightLeg  23.5361 1.11079 0.308022
RightFoot  -9.27404 -0.303259 13.244
RightToes  5.38607e-012 1.2921e-014 -6.02303e-014
Spine  4.33323 -1.68821 7.70123
Spine1  2.61969 -1.92337 1.46567
HEad  -2.23947 13.4445 -12.6676
LeftShoulder1  1.63072 -2.41563 -22.449
LeftArm  -4.43028 -0.461911 -53.2833
LeftForeArm  32.9917 4.54204 -11.8097
LeftHand  -0.0603101 4.30336 4.36526
RightShoulder  1.75412 2.4069 24.6162
RightArm  -29.1232 12.446 46.3678
RightForeArm  66.6367 -4.92338 0.49001
RightHand  0.243579 -6.5425 -24.8826
LeftUpLeg  -30.7987 8.1869 3.56839
LeftLeg  56.4684 2.32575 4.30407
LeftFoot  -12.2064 0.042852 -4.01201
LeftToes  -4.79707e-012 -5.93756e-011 -7.55542e-012
251
root  -34.8874 38.5706 -55.579 6.25034 50.4835 -4.86456
RightUpLeg  -18.5679 -8.59083 -6.88791
RightLeg  22.1172 0.27187 -0.0976974
RightFoot  -10.0316 -0.222594 13.4272
RightToes  5.38607e-012 1.2921e-014 -6.02303e-014
Spine  5.0648 -1.1566 7.78542
Spine1  1.8232 -1.29167 0.996936
HEad  -3.18141 11.5038 -12.8938
LeftShoulder1  1.71015 -2.63253 -22.7643
LeftArm  -4.32149 -0.890752 -52.2951
LeftForeArm  32.2248 4.92749 -11.883
LeftHand  -0.0537008 4.46222 4.16618
RightShoulder  1.87465 2.99008 23.6506
RightArm  -28.9215 15.456 47.8325
RightForeArm  66.1257 -4.914 0.323856
RightHand  0.235614 -6.49802 -25.0309
LeftUpLeg  -34.7361 9.05021 2.79176
LeftLeg  51.2427 3.82212 5.55578
LeftFoot  -13.2672 0.0275615 -3.09109
LeftToes  -4.79707e-012 -5.93756e-011 -7.55542e-012
252
root  -34.1731 38.601 -55.1014 7.0592 52.5146 -4.90765
RightUpLeg  -17.0203 -9.88014 -7.02727
RightLeg  21.1084 -0.329313 -0.357974
RightFoot  -11.0065 -0.116712 14.1637
RightToes  5.38607e-012 1.2921e-014 -6.02303e-014
Spine  5.48113 -0.591798 8.46133
Spine1  1.70862 -0.576766 0.238271
HEad  -4.23727 9.72787 -12.7252
LeftShoulder1  1.76569 -2.83586 -22.7133
LeftArm  -4.10679 -1.58586 -51.6599
LeftForeArm  31.916 5.29592 -12.0018
LeftHand  -0.0484059 4.67476 4.4158
RightShoulder  1.95312 3.42984 22.8352
RightArm  -28.8055 19.0026 49.5231
RightForeArm  66.0968 -4.85262 -0.0416067
RightHand  0.204883 -6.34881 -25.2081
LeftUpLeg  -37.9548 10.0521 2.31397
LeftLeg  45.4277 5.86767 6.75447
LeftFoot  -12.9079 0.0337212 -3.19216
LeftToes  -4.79707e-012 -5.93756e-011 -7.55542e-012
253
root  -33.3892 38.5423 -54.6975 7.91348 53.817 -5.08557
RightUpLeg  -15.8969 -11.2442 -7.16314
RightLeg  20.3364 -0.262651 -0.323588
RightFoot  -12.137 0.0193598 14.644
RightToes  5.38607e-012 1.2921e-014 -6.02303e-014
Spine  5.85755 0.170328 9.25295
Spine1  1.33286 0.424363 -0.829836
HEad  -4.95519 8.04802 -12.3225
LeftShoulder1  1.77968 -2.97059 -22.2959
LeftArm  -4.08271 -2.11297 -51.4351
LeftForeArm  31.7172 5.53919 -12.0277
LeftHand  -0.0413437 4.89659 4.50982
RightShoulder  2.12647 4.22554 22.0415
RightArm  -27.8717 22.601 50.5024
RightForeArm  65.472 -4.90257 0.116127
RightHand  0.193137 -6.29481 -25.2178
LeftUpLeg  -40.8588 11.5406 1.7197
LeftLeg  39.7703 8.65846 8.0254
LeftFoot  -11.0767 0.0746223 -3.55995
LeftToes  -4.79707e-012 -5.93756e-011 -7.55542e-012
254
root  -32.5113 38.4215 -54.3461 8.28986 54.8086 -5.53076
RightUpLeg  -14.5526 -11.946 -7.40371
RightLeg  19.74 -0.363731 -0.358677
RightFoot  -13.2637 0.167955 15.3225
RightToes  5.38607e-012 1.2921e-014 -6.02303e-014
Spine  6.21753 0.807082 9.7504
Spine1  1.21825 1.26483 -1.63477
HEad  -5.71239 6.88745 -11.8805
LeftShoulder1  1.76231 -3.0381 -21.6843
LeftArm  -3.66334 -2.3274 -51.0695
LeftForeArm  31.5872 5.07588 -12.1874
LeftHand  -0.0491437 4.64431 4.36576
RightShoulder  2.22294 4.6915 21.5816
RightArm  -27.392 26.2586 51.6807
RightForeArm  64.822 -4.8924 -0.0818973
RightHand  0.161219 -6.15874 -24.9585
LeftUpLeg  -43.0665 12.4798 1.55553
LeftLeg  35.0625 11.0072 8.5502
LeftFoot  -8.85412 0.136473 -3.84029
LeftToes  -4.79707e-012 -5.93756e-011 -7.55542e-012
255
root  -31.4528 38.2292 -54.0594 7.68658 55.7605 -6.47696
RightUpLeg  -12.5479 -13.2726 -7.8277
RightLeg  19.496 0.443036 -0.0358593
RightFoot  -14.4229 0.337613 16.1137
RightToes  5.38607e-012 1.2921e-014 -6.02303e-014
Spine  6.57618 1.24522 10.3513
Spine1  1.24977 1.81175 -1.97475
HEad  -6.2246 6.15994 -11.4498
LeftShoulder1  1.74766 -3.01822 -21.5305
LeftArm  -3.06028 -2.52588 -50.1636
LeftForeArm  31.9141 4.3135 -12.394
LeftHand  -0.0523624 4.56286 4.45472
RightShoulder  2.26041 4.8941 21.3391
RightArm  -27.1555 29.6232 53.134
RightForeArm  64.2207 -4.84158 -0.505068
RightHand  0.0845137 -5.80365 -25.0142
LeftUpLeg  -44.357 12.6082 2.12621
LeftLeg  32.2672 10.0059 7.09078
LeftFoot  -7.24018 0.208969 -4.6227
LeftToes  -4.79707e-012 -5.93756e-011 -7.55542e-012
256
root  -30.1408 38.016 -53.8319 6.58133 56.2462 -7.51022
RightUpLeg  -9.96482 -13.6357 -8.82337
RightLeg  19.397 1.2152 0.275558
RightFoot  -15.0387 0.482915 18.0075
RightToes  5.38607e-012 1.2921e-014 -6.02303e-014
Spine  6.73574 1.76968 11.1267
Spine1  1.15709 2.438 -2.32916
HEad  -5.81589 5.91038 -11.0904
LeftShoulder1  1.7143 -3.02909 -20.9179
LeftArm  -3.2185 -2.39803 -49.8504
LeftForeArm  32.0016 4.27166 -12.3143
LeftHand  -0.0562454 4.50497 4.74499
RightShoulder  2.35419 5.35934 20.9203
RightArm  -26.3313 31.7323 53.9523
RightForeArm  63.0655 -4.91666 -0.307375
RightHand  0.0656625 -5.71761 -24.9735
LeftUpLeg  -44.6002 12.6832 2.64539
LeftLeg  32.119 7.85166 5.63152
LeftFoot  -8.90515 0.165221 -5.25877
LeftToes  -4.79707e-012 -5.93756e-011 -7.55542e-012
257
root  -28.5657 37.8522 -53.7046 6.01874 56.0949 -7.68979
RightUpLeg  -7.68722 -12.3809 -10.9622
RightLeg  20.3764 1.95533 0.589494
RightFoot  -14.5787 0.500612 21.0253
RightToes  5.38607e-012 1.2921e-014 -6.02303e-014
Spine  5.78395 2.11418 11.8129
Spine1  2.0309 2.97617 -3.34774
HEad  -4.84314 6.57446 -10.5119
LeftShoulder1  1.58876 -2.68672 -20.3291
LeftArm  -4.10082 -1.30206 -49.6476
LeftForeArm  30.9227 3.73664 -11.973
LeftHand  -0.0595858 4.49113 5.16203
RightShoulder  2.47922 5.67569 21.3917
RightArm  -25.2973 33.1425 54.4382
RightForeArm  62.984 -4.99932 0.1587
RightHand  0.0283728 -5.54953 -24.6256
LeftUpLeg  -43.1944 12.6755 2.3161
LeftLeg  32.6009 6.97099 5.13278
LeftFoot  -7.49778 0.244318 -5.93944
LeftToes  -4.79707e-012 -5.93756e-011 -7.55542e-012
258
root  -26.8097 37.8508 -53.7149 7.50555 56.2222 -5.49069
RightUpLeg  -6.49729 -9.88901 -14.631
RightLeg  23.0772 1.70712 0.581676
RightFoot  -12.3261 0.142946 26.0559
RightToes  5.38607e-012 1.2921e-014 -6.02303e-014
Spine  4.37047 1.91368 10.3884
Spine1  3.08891 2.88733 -4.21171
HEad  -3.30656 8.04757 -10.5751
LeftShoulder1  1.48989 -2.29529 -20.421
LeftArm  -4.65412 1.89367 -49.2493
LeftForeArm  27.3589 1.91347 -11.8033
LeftHand  -0.0835452 4.01778 5.6322
RightShoulder  2.52217 5.58435 22.2099
RightArm  -23.4989 33.3281 54.7847
RightForeArm  62.4425 -5.21131 1.29205
RightHand  -0.00862473 -5.37495 -24.9521
LeftUpLeg  -39.874 9.41699 0.559948
LeftLeg  31.0796 9.23419 6.31049
LeftFoot  -3.39214 -0.0292824 0.715936
LeftToes  -4.79707e-012 -5.93756e-011 -7.55542e-012
259
root  -25.0718 37.9265 -53.9496 7.02185 57.1217 -5.4693
RightUpLeg  -9.57125 -5.08077 -15.8251
RightLeg  32.7285 -3.35447 -2.56295
RightFoot  -6.13864 -1.39903 29.2486
RightToes  5.38607e-012 1.2921e-014 -6.02303e-014
Spine  5.2893 1.40156 9.48223
Spine1  1.50889 1.976 -2.59059
HEad  -1.7947 9.62098 -10.8898
LeftShoulder1  1.39474 -1.88862 -20.6874
LeftArm  -5.81885 6.11421 -49.8505
LeftForeArm  24.9154 -0.0487605 -11.4517
LeftHand  -0.107929 3.58029 5.98441
RightShoulder  2.33505 5.0122 21.8826
RightArm  -20.675 32.3471 55.7671
RightForeArm  59.9093 -2.75805 3.47661
RightHand  0.00165591 -5.42051 -25.28
LeftUpLeg  -37.9869 4.51814 0.216028
LeftLeg  33.4054 12.4802 9.07508
LeftFoot  -5.38652 -0.00153608 0.653233
LeftToes  -4.79707e-012 -5.93756e-011 -7.55542e-012
260
root  -23.4135 38.2785 -54.171 6.79095 58.7144 -4.88403
RightUpLeg  -17.1424 -4.36739 -14.7898
RightLeg  47.5603 -7.84661 -9.41171
RightFoot  3.06153 -0.64201 5.24259
RightToes  5.38607e-012 1.2921e-014 -6.02303e-014
Spine  5.69067 0.801627 8.20165
Spine1  2.08903 0.782609 0.590654
HEad  -2.53321 10.3167 -10.6938
LeftShoulder1  1.724 -3.23293 -20.1745
LeftArm  -7.67305 9.02934 -51.1978
LeftForeArm  25.0682 -0.756992 -10.9155
LeftHand  -0.116428 3.48858 6.25346
RightShoulder  2.27544 4.90724 21.4882
RightArm  -16.8349 33.8928 56.6023
RightForeArm  58.1919 -1.5056 5.59677
RightHand  0.00656458 -5.4395 -25.7895
LeftUpLeg  -34.3218 3.56102 -1.96305
LeftLeg  31.8718 12.397 8.53657
LeftFoot  -6.71662 -0.0314912 1.7813
LeftToes  -4.79707e-012 -5.93756e-011 -7.55542e-012
261
root  -22.2296 38.312 -54.4036 9.05515 59.3387 -1.78366
RightUpLeg  -23.5143 -2.45205 -15.2304
RightLeg  53.8468 -1.61607 -2.77027
RightFoot  -6.13359 -0.304609 5.77415
RightToes  5.38607e-012 1.2921e-014 -6.02303e-014
Spine  8.53423 0.0818422 5.58881
Spine1  1.14924 0.0413175 0.998039
HEad  -2.41617 11.4111 -12.6625
LeftShoulder1  2.01468 -4.18953 -20.7276
LeftArm  -6.9162 10.1544 -51.2286
LeftForeArm  27.7336 0.168783 -11.2929
LeftHand  -0.101501 3.83605 6.42758
RightShoulder  2.26225 5.0418 20.8421
RightArm  -14.6411 39.5658 60.0566
RightForeArm  63.5344 -5.75185 4.7526
RightHand  -0.011722 -5.3612 -24.7887
LeftUpLeg  -34.0106 6.84538 -5.80283
LeftLeg  34.2345 8.48526 6.53765
LeftFoot  -6.73411 -0.020413 1.5152
LeftToes  -4.79707e-012 -5.93756e-011 -7.55542e-012
262
root  -21.0904 38.4885 -54.8795 11.9902 60.2597 0.748962
RightUpLeg  -30.0651 -3.76161 -14.5128
RightLeg  51.9961 2.93552 3.66459
RightFoot  -12.802 0.0372794 9.73654
RightToes  5.38607e-012 1.2921e-014 -6.02303e-014
Spine  11.8578 -0.506931 6.75494
Spine1  -0.507141 0.12792 0.398167
HEad  -3.86322 10.7805 -16.0292
LeftShoulder1  2.31039 -5.03395 -21.6101
LeftArm  -6.30103 7.88086 -51.8365
LeftForeArm  32.0403 3.07033 -11.5719
LeftHand  -0.0655157 4.48298 5.97624
RightShoulder  2.38723 6.12699 18.9254
RightArm  -14.707 46.6852 63.9943
RightForeArm  66.6238 -5.24256 2.37247
RightHand  0.102072 -5.95986 -22.3715
LeftUpLeg  -37.1127 11.9474 -9.72655
LeftLeg  39.1877 2.21009 2.33495
LeftFoot  -2.06752 0.0302153 -0.218827
LeftToes  -4.79707e-012 -5.93756e-011 -7.55542e-012
